<svg xmlns="http://www.w3.org/2000/svg" version="1.1" width="900px" height="550px" style="shape-rendering:geometricPrecision; text-rendering:geometricPrecision; image-rendering:optimizeQuality; fill-rule:evenodd; clip-rule:evenodd" xmlns:xlink="http://www.w3.org/1999/xlink">
<g><path style="opacity:0" fill="#fefefe" d="M -0.5,-0.5 C 299.5,-0.5 599.5,-0.5 899.5,-0.5C 899.5,182.833 899.5,366.167 899.5,549.5C 599.5,549.5 299.5,549.5 -0.5,549.5C -0.5,366.167 -0.5,182.833 -0.5,-0.5 Z"/></g>
<g><path style="opacity:0" fill="#f5f6f6" d="M 229.5,189.5 C 245.405,187.03 255.905,193.364 261,208.5C 262.201,213.939 263.034,219.439 263.5,225C 262.089,240.519 260.922,256.019 260,271.5C 260.333,270.167 260.667,268.833 261,267.5C 261.312,271.665 261.145,275.832 260.5,280C 260.621,286.881 261.121,287.048 262,280.5C 261.51,292.821 261.843,305.154 263,317.5C 263.341,307.432 264.341,297.432 266,287.5C 266.333,288.167 266.667,288.833 267,289.5C 267.865,284.375 269.198,279.375 271,274.5C 271.333,275.167 271.667,275.833 272,276.5C 276.127,266.035 283.627,259.535 294.5,257C 311.835,257.311 329.001,255.811 346,252.5C 358.706,254.794 371.206,257.794 383.5,261.5C 390.828,260.509 397.828,258.342 404.5,255C 430.862,246.795 452.362,253.628 469,275.5C 472.343,282.55 475.676,288.883 479,294.5C 480.558,293.655 481.558,294.321 482,296.5C 482.974,294.122 483.641,294.456 484,297.5C 484.667,296.167 485.333,294.833 486,293.5C 486.333,293.833 486.667,294.167 487,294.5C 493.38,286.401 500.546,278.234 508.5,270C 521.608,258.963 536.774,253.463 554,253.5C 568.592,254.238 583.092,255.738 597.5,258C 606.178,260.678 612.345,266.178 616,274.5C 617.955,280.681 619.121,287.015 619.5,293.5C 619.354,303.843 619.354,314.177 619.5,324.5C 617.588,332.843 617.421,341.176 619,349.5C 619.419,345.148 620.086,344.815 621,348.5C 621.336,341.467 622.002,334.467 623,327.5C 623.333,328.5 623.667,329.5 624,330.5C 624.498,328.473 624.331,326.473 623.5,324.5C 623.737,321.937 624.237,321.937 625,324.5C 643.047,263.691 683.547,241.524 746.5,258C 758.395,261.897 765.228,270.064 767,282.5C 767.649,302.645 766.149,322.645 762.5,342.5C 762.936,345.179 763.436,347.845 764,350.5C 766.183,352.076 768.349,353.742 770.5,355.5C 773.538,355.474 776.538,355.474 779.5,355.5C 781.274,355.113 782.941,354.447 784.5,353.5C 787.219,354.255 789.719,353.589 792,351.5C 795.371,353.275 797.538,352.275 798.5,348.5C 794,340.833 789.5,333.167 785,325.5C 775.066,290.871 787.233,267.705 821.5,256C 846.393,249.837 867.893,255.671 886,273.5C 896.794,291.148 893.628,305.648 876.5,317C 874.586,318.413 873.253,320.247 872.5,322.5C 876.15,329.798 880.316,336.798 885,343.5C 896.594,369.95 891.428,392.45 869.5,411C 851.948,421.84 833.281,424.173 813.5,418C 808.511,416.559 803.678,414.726 799,412.5C 796.701,413.379 794.701,412.712 793,410.5C 791.887,411.711 790.72,411.711 789.5,410.5C 787.051,410.98 784.885,411.98 783,413.5C 780.956,412.228 779.122,412.561 777.5,414.5C 776.914,414.291 776.414,413.957 776,413.5C 768.815,417.95 760.982,420.283 752.5,420.5C 741.748,418.584 731.082,416.25 720.5,413.5C 711.832,415.334 703.165,417.167 694.5,419C 678.783,420.697 664.617,416.863 652,407.5C 651.586,407.957 651.086,408.291 650.5,408.5C 648.379,407.65 646.212,406.65 644,405.5C 640.368,407.324 636.534,408.824 632.5,410C 620.96,419.109 607.96,422.109 593.5,419C 586.325,416.539 578.991,414.706 571.5,413.5C 562.832,415.334 554.165,417.167 545.5,419C 522.886,420.521 504.553,412.521 490.5,395C 488.479,394.487 486.979,393.32 486,391.5C 485.667,391.833 485.333,392.167 485,392.5C 484.333,391.167 483.667,389.833 483,388.5C 482.641,391.544 481.974,391.878 481,389.5C 480.667,390.5 480.333,391.5 480,392.5C 479.333,393.833 478.667,393.833 478,392.5C 477.667,393.833 477.333,395.167 477,396.5C 476.333,397.833 475.667,397.833 475,396.5C 466.861,414.436 453.695,419.602 435.5,412C 429.316,407.797 425.482,401.964 424,394.5C 423.219,390.031 422.719,385.531 422.5,381C 424.612,363.216 425.445,345.383 425,327.5C 424.73,315.838 419.73,312.838 410,318.5C 406.863,323.108 404.53,328.108 403,333.5C 400.814,350.44 399.147,367.44 398,384.5C 397.324,395.885 392.824,405.385 384.5,413C 373.018,419.5 362.018,418.834 351.5,411C 344.235,401.457 340.902,390.624 341.5,378.5C 343.094,361.193 343.594,343.86 343,326.5C 340.184,317.13 335.517,316.13 329,323.5C 326.545,327.531 324.879,331.864 324,336.5C 322.192,352.784 320.859,369.118 320,385.5C 319.137,399.419 312.637,409.586 300.5,416C 283.015,420.009 271.515,413.509 266,396.5C 264.984,397.634 264.317,397.301 264,395.5C 262.257,389.936 260.924,384.269 260,378.5C 259.667,381.5 259.333,384.5 259,387.5C 258.667,385.5 258.333,383.5 258,381.5C 257.667,384.167 257.333,386.833 257,389.5C 255.984,388.366 255.317,388.699 255,390.5C 254.333,393.167 253.667,395.833 253,398.5C 252.667,397.5 252.333,396.5 252,395.5C 245.492,414.504 232.658,420.837 213.5,414.5C 212.833,414.833 212.167,415.167 211.5,415.5C 209.316,413.12 206.816,411.786 204,411.5C 203.692,412.308 203.192,412.975 202.5,413.5C 200.833,413.5 199.167,413.5 197.5,413.5C 174.816,425.212 157.983,419.212 147,395.5C 143.435,385.464 139.102,375.798 134,366.5C 127.254,360.341 119.254,357.674 110,358.5C 101.832,358.979 93.6654,359.479 85.5,360C 77.2103,361.059 71.0437,365.226 67,372.5C 62.1316,385.131 56.1316,397.131 49,408.5C 37.8468,419.471 25.3468,421.305 11.5,414C 1.33072,403.14 -1.16928,390.64 4,376.5C 13.8315,350.341 24.8315,324.674 37,299.5C 50,272.833 63,246.167 76,219.5C 80.1293,210.405 86.6293,203.572 95.5,199C 109.862,193.799 122.028,196.965 132,208.5C 135.507,213.51 138.507,218.843 141,224.5C 149.723,247.612 158.723,270.612 168,293.5C 177.349,307.201 183.682,322.201 187,338.5C 187.333,337.5 187.667,336.5 188,335.5C 188.692,338.936 189.692,342.27 191,345.5C 191.333,344.833 191.667,344.167 192,343.5C 192.419,347.852 193.086,348.185 194,344.5C 194.29,346.044 194.956,347.377 196,348.5C 197.334,341.164 198.667,333.831 200,326.5C 201.298,290.057 203.965,253.724 208,217.5C 210.175,204.071 217.342,194.738 229.5,189.5 Z"/></g>
<g><path style="opacity:1" fill="#10bf65" d="M 247.5,201.5 C 247.5,204.5 247.5,207.5 247.5,210.5C 245.691,222.982 244.191,235.649 243,248.5C 240.05,295.126 238.05,341.793 237,388.5C 235.149,394.012 231.316,396.345 225.5,395.5C 220.802,396.293 217.302,394.626 215,390.5C 215.885,330.747 218.718,271.08 223.5,211.5C 224.207,208.214 224.54,204.881 224.5,201.5C 227.09,191.107 233.424,187.941 243.5,192C 246.62,194.408 247.953,197.574 247.5,201.5 Z"/></g>
<g><path style="opacity:1" fill="#08bf64" d="M 120.5,208.5 C 132.984,240.808 145.484,273.141 158,305.5C 160.627,307.218 163.46,308.718 166.5,310C 170.497,315.686 170.497,321.353 166.5,327C 173.862,345.557 181.362,364.057 189,382.5C 190.854,393.149 186.354,398.482 175.5,398.5C 172.207,397.59 169.707,395.59 168,392.5C 159.873,372.618 152.039,352.618 144.5,332.5C 120.161,331.288 95.8274,331.454 71.5,333C 67.8136,333.559 64.147,334.226 60.5,335C 51.7106,353.081 43.8772,371.581 37,390.5C 35.2332,393.772 32.7332,396.105 29.5,397.5C 17.3341,397.815 12.8341,392.148 16,380.5C 25.1156,357.602 34.7823,334.935 45,312.5C 61.847,277.474 78.6804,242.474 95.5,207.5C 99.7476,198.287 106.414,196.121 115.5,201C 117.797,203.099 119.464,205.599 120.5,208.5 Z"/></g>
<g><path style="opacity:0" fill="#eeefee" d="M 224.5,201.5 C 224.54,204.881 224.207,208.214 223.5,211.5C 220.626,215.259 218.792,219.593 218,224.5C 217.093,230.473 216.427,236.473 216,242.5C 212.846,291.103 210.013,339.603 207.5,388C 209.537,392.056 212.037,395.89 215,399.5C 227.725,406.571 236.725,402.905 242,388.5C 242.912,384.205 243.579,379.872 244,375.5C 245.17,327.094 247.67,278.761 251.5,230.5C 251.333,226.167 251.167,221.833 251,217.5C 250.33,214.826 249.163,212.493 247.5,210.5C 247.5,207.5 247.5,204.5 247.5,201.5C 252.091,205.001 254.924,209.667 256,215.5C 256.167,219.833 256.333,224.167 256.5,228.5C 252.604,276.424 250.104,324.424 249,372.5C 249.681,384.787 246.181,395.62 238.5,405C 228.941,411.36 219.774,410.86 211,403.5C 209.442,404.345 208.442,403.679 208,401.5C 206.984,402.634 206.317,402.301 206,400.5C 205.667,400.833 205.333,401.167 205,401.5C 202.04,397.555 199.373,397.889 197,402.5C 194.683,403.76 192.349,405.76 190,408.5C 178.01,414.706 167.343,412.373 158,401.5C 151.318,388.136 144.651,374.802 138,361.5C 133.316,356.379 127.483,353.545 120.5,353C 108.478,352.378 96.478,352.711 84.5,354C 75.1433,355.091 67.9766,359.591 63,367.5C 58.2724,377.956 53.2724,388.289 48,398.5C 40.0251,410.383 29.5251,413.55 16.5,408C 9.37582,400.952 6.87582,392.452 9,382.5C 13.2102,368.078 18.5435,354.078 25,340.5C 44.0044,298.158 64.3378,256.492 86,215.5C 88.7663,212.223 91.933,209.557 95.5,207.5C 78.6804,242.474 61.847,277.474 45,312.5C 34.7823,334.935 25.1156,357.602 16,380.5C 12.8341,392.148 17.3341,397.815 29.5,397.5C 34.4221,397.101 38.2555,394.767 41,390.5C 46.0439,381.377 50.7106,372.044 55,362.5C 61.6229,352.766 70.7895,346.933 82.5,345C 96.4664,343.491 110.466,343.158 124.5,344C 134.479,345.99 142.312,351.157 148,359.5C 153.155,371.143 158.822,382.477 165,393.5C 167.805,396.653 171.305,398.319 175.5,398.5C 186.354,398.482 190.854,393.149 189,382.5C 181.362,364.057 173.862,345.557 166.5,327C 170.497,321.353 170.497,315.686 166.5,310C 163.46,308.718 160.627,307.218 158,305.5C 145.484,273.141 132.984,240.808 120.5,208.5C 124.046,209.872 126.88,212.205 129,215.5C 131.588,219.674 133.921,224.007 136,228.5C 144,249.167 152,269.833 160,290.5C 164.745,300.324 169.745,309.99 175,319.5C 178.822,331.788 182.489,344.121 186,356.5C 186.333,356.167 186.667,355.833 187,355.5C 189.292,361.787 192.125,367.12 195.5,371.5C 197.102,370.45 197.935,371.117 198,373.5C 201.579,366.968 203.913,359.968 205,352.5C 206.463,310.087 209.13,267.754 213,225.5C 213.701,215.846 217.534,207.846 224.5,201.5 Z"/></g>
<g><path style="opacity:0" fill="#e7e9e8" d="M 247.5,210.5 C 249.163,212.493 250.33,214.826 251,217.5C 251.167,221.833 251.333,226.167 251.5,230.5C 247.67,278.761 245.17,327.094 244,375.5C 243.579,379.872 242.912,384.205 242,388.5C 236.725,402.905 227.725,406.571 215,399.5C 212.037,395.89 209.537,392.056 207.5,388C 210.013,339.603 212.846,291.103 216,242.5C 216.427,236.473 217.093,230.473 218,224.5C 218.792,219.593 220.626,215.259 223.5,211.5C 218.718,271.08 215.885,330.747 215,390.5C 217.302,394.626 220.802,396.293 225.5,395.5C 231.316,396.345 235.149,394.012 237,388.5C 238.05,341.793 240.05,295.126 243,248.5C 244.191,235.649 245.691,222.982 247.5,210.5 Z"/></g>
<g><path style="opacity:1" fill="#0cbf65" d="M 451.5,267.5 C 453.837,270.681 456.004,274.014 458,277.5C 459.428,281.307 460.928,284.974 462.5,288.5C 465.414,306.704 466.247,325.037 465,343.5C 463.435,357.848 461.768,372.181 460,386.5C 456.88,393.974 451.38,396.474 443.5,394C 441.622,392.457 440.122,390.624 439,388.5C 438.333,382.5 438.333,376.5 439,370.5C 440.493,361.891 441.326,353.225 441.5,344.5C 442.661,330.339 442.827,316.006 442,301.5C 441.374,290.712 436.207,283.212 426.5,279C 420.774,277.896 415.44,278.896 410.5,282C 399.106,289.936 390.94,300.436 386,313.5C 383.503,336.442 381.67,359.442 380.5,382.5C 380.712,392.788 375.712,397.288 365.5,396C 358.785,393.072 356.118,387.906 357.5,380.5C 358.357,369.174 359.023,357.841 359.5,346.5C 362.658,327.857 362.158,309.19 358,290.5C 352.578,277.711 344.078,275.211 332.5,283C 320.942,291.918 312.108,303.084 306,316.5C 304.881,338.491 304.048,360.491 303.5,382.5C 302.097,395.363 295.43,399.197 283.5,394C 282.299,393.097 281.465,391.931 281,390.5C 280.503,352.737 282.003,315.07 285.5,277.5C 285.704,274.482 286.037,271.482 286.5,268.5C 288.528,259.98 293.861,256.813 302.5,259C 305.749,260.08 307.749,262.247 308.5,265.5C 308.359,270.867 308.192,276.201 308,281.5C 311.699,276.973 315.532,272.639 319.5,268.5C 334.149,256.981 349.816,255.481 366.5,264C 372.764,269.363 377.43,275.863 380.5,283.5C 389.093,271.414 400.427,262.914 414.5,258C 428.551,255.095 440.885,258.262 451.5,267.5 Z"/></g>
<g><path style="opacity:1" fill="#09bf64" d="M 603.5,278.5 C 601.003,296.477 598.503,314.477 596,332.5C 595.035,343.934 595.701,355.267 598,366.5C 602.047,376.79 606.88,377.124 612.5,367.5C 615.366,362.57 619.699,360.57 625.5,361.5C 632.93,366.279 634.43,372.613 630,380.5C 628.824,382.196 627.657,383.862 626.5,385.5C 615.757,396.213 603.424,398.379 589.5,392C 583.173,386.519 579.007,379.686 577,371.5C 562.873,392.874 543.707,399.041 519.5,390C 503.771,380.738 494.938,366.905 493,348.5C 492.5,342.175 492.334,335.842 492.5,329.5C 492.674,321.299 494.007,313.299 496.5,305.5C 501.681,292.468 509.347,281.135 519.5,271.5C 533.992,259.314 550.325,256.147 568.5,262C 573.49,263.665 577.99,266.165 582,269.5C 584.132,260.184 589.632,257.351 598.5,261C 599.667,262.167 600.833,263.333 602,264.5C 603.379,269.036 603.879,273.703 603.5,278.5 Z"/></g>
<g><path style="opacity:1" fill="#0bbf65" d="M 752.5,269.5 C 752.553,275.196 752.22,280.862 751.5,286.5C 746.735,309.809 744.568,333.476 745,357.5C 745.713,362.352 747.046,367.019 749,371.5C 752.208,375.401 755.374,375.401 758.5,371.5C 760.592,368.319 762.925,365.319 765.5,362.5C 772.883,360.06 777.883,362.393 780.5,369.5C 780.899,377.538 777.899,384.038 771.5,389C 759.712,397.275 747.712,397.608 735.5,390C 730.628,384.758 727.462,378.591 726,371.5C 710.236,394.081 689.736,399.581 664.5,388C 650.094,377.021 642.094,362.521 640.5,344.5C 638.734,317.123 647.068,293.456 665.5,273.5C 681.594,258.928 699.927,255.428 720.5,263C 723.952,265.393 727.619,267.226 731.5,268.5C 734.128,259.096 739.795,256.929 748.5,262C 751.024,263.883 752.358,266.383 752.5,269.5 Z"/></g>
<g><path style="opacity:1" fill="#09bf64" d="M 880.5,279.5 C 882.01,289.652 877.676,294.985 867.5,295.5C 863.74,293.576 860.74,290.743 858.5,287C 845.764,276.909 833.264,277.076 821,287.5C 817.077,298.567 820.577,306.234 831.5,310.5C 840.799,315.149 849.799,320.316 858.5,326C 866.83,332.811 872.496,341.311 875.5,351.5C 875.5,357.167 875.5,362.833 875.5,368.5C 868.617,387.048 855.117,396.048 835,395.5C 815.791,393.895 799.125,386.561 785,373.5C 784.392,371.846 783.892,370.179 783.5,368.5C 783.95,363.203 786.617,359.369 791.5,357C 793.167,356.333 794.833,356.333 796.5,357C 799.329,358.356 801.996,359.856 804.5,361.5C 814.606,370.878 826.606,375.211 840.5,374.5C 850.743,371.695 854.576,365.028 852,354.5C 849.271,348.437 845.104,343.603 839.5,340C 825.582,334.797 813.415,326.963 803,316.5C 800.255,312.343 798.088,308.01 796.5,303.5C 793.867,291.744 796.533,281.411 804.5,272.5C 824.149,257.206 845.149,255.372 867.5,267C 872.362,270.697 876.696,274.864 880.5,279.5 Z"/></g>
<g><path style="opacity:0" fill="#dde0df" d="M 121.5,309.5 C 126.272,294.964 122.939,282.464 111.5,272C 107.003,269.879 102.67,270.212 98.5,273C 87.8248,282.634 84.1581,294.301 87.5,308C 96.676,308.17 105.676,308.67 114.5,309.5C 99.9875,309.541 85.6541,309.541 71.5,309.5C 83.4374,284.175 95.2707,258.841 107,233.5C 116.5,258.5 126,283.5 135.5,308.5C 130.88,309.493 126.214,309.827 121.5,309.5 Z"/></g>
<g><path style="opacity:0" fill="#eff0f0" d="M 451.5,267.5 C 457.147,270.982 461.647,275.649 465,281.5C 469.628,292.797 474.295,303.464 479,313.5C 479.333,312.833 479.667,312.167 480,311.5C 482.09,314.009 483.923,313.675 485.5,310.5C 491.667,301.5 497.833,292.5 504,283.5C 508.235,278.074 513.402,274.074 519.5,271.5C 509.347,281.135 501.681,292.468 496.5,305.5C 488.563,317.677 483.896,331.011 482.5,345.5C 485.173,364.345 492.84,380.845 505.5,395C 515.004,403.498 526.171,407.998 539,408.5C 550.079,406.48 561.079,404.147 572,401.5C 580.321,403.051 588.488,405.218 596.5,408C 606.491,410.079 615.491,408.079 623.5,402C 628.355,396.74 633.522,391.907 639,387.5C 639.333,388.167 639.667,388.833 640,389.5C 641.796,388.233 643.629,388.233 645.5,389.5C 657.349,400.006 671.183,406.339 687,408.5C 698.232,406.478 709.399,404.145 720.5,401.5C 728.737,402.745 736.737,404.912 744.5,408C 749.833,408.667 755.167,408.667 760.5,408C 768.857,405.199 777.19,401.699 785.5,397.5C 787.5,397.5 789.5,397.5 791.5,397.5C 804.977,404.037 819.477,408.37 835,410.5C 853.041,409.656 866.708,401.656 876,386.5C 880.74,376.405 881.407,366.072 878,355.5C 877.392,353.934 876.558,352.6 875.5,351.5C 872.496,341.311 866.83,332.811 858.5,326C 849.799,320.316 840.799,315.149 831.5,310.5C 830.401,300.926 834.734,295.926 844.5,295.5C 849.637,296.401 854.804,297.067 860,297.5C 862.866,297.7 865.366,297.033 867.5,295.5C 877.676,294.985 882.01,289.652 880.5,279.5C 883.333,282.695 884.667,286.529 884.5,291C 884.275,301.12 879.275,307.454 869.5,310C 864.511,310.974 859.511,311.808 854.5,312.5C 854.34,314.199 854.506,315.866 855,317.5C 859.967,323.469 865.301,329.135 871,334.5C 885.416,350.934 888.416,369.268 880,389.5C 866.62,409.861 847.787,418.027 823.5,414C 812.207,410.681 801.707,407.181 792,403.5C 789.593,403.673 787.26,403.673 785,403.5C 783.676,404.88 782.343,405.214 781,404.5C 770.308,411.876 758.142,414.709 744.5,413C 736.734,410.409 728.901,408.242 721,406.5C 709.824,409.444 698.491,411.777 687,413.5C 681.074,412.796 675.241,411.63 669.5,410C 660.755,405.084 652.255,400.584 644,396.5C 642.475,396.888 640.808,396.888 639,396.5C 635.583,398.707 632.583,401.373 630,404.5C 629.667,404.167 629.333,403.833 629,403.5C 619.588,412.523 608.421,415.689 595.5,413C 587.869,410.101 580.035,407.934 572,406.5C 561.136,409.466 550.136,411.799 539,413.5C 523.286,412.64 509.952,406.64 499,395.5C 494.333,388.833 489.667,382.167 485,375.5C 483.129,373.632 480.796,372.299 478,371.5C 475.072,381.085 470.738,390.751 465,400.5C 455.239,410.62 445.239,410.953 435,401.5C 432.566,398.205 430.899,394.538 430,390.5C 430.575,368.175 430.908,345.841 431,323.5C 430.499,317.333 427.999,312.166 423.5,308C 415.819,305.561 409.652,307.728 405,314.5C 400.434,321.528 397.434,329.195 396,337.5C 394.554,354.193 392.887,370.859 391,387.5C 388.312,403.234 379.145,410.401 363.5,409C 356.618,406.416 352.118,401.583 350,394.5C 348.904,388.878 348.071,383.211 347.5,377.5C 349.254,359.204 349.754,340.87 349,322.5C 348.171,312.652 343.004,308.485 333.5,310C 325.201,316.079 320.034,324.246 318,334.5C 316.192,350.789 314.859,367.122 314,383.5C 313.36,395.31 307.86,403.81 297.5,409C 282.349,410.531 273.516,403.698 271,388.5C 270.032,357.435 271.032,326.435 274,295.5C 274.637,284.71 278.803,275.71 286.5,268.5C 286.037,271.482 285.704,274.482 285.5,277.5C 280.945,283.994 278.445,291.327 278,299.5C 276.443,323.646 275.277,347.813 274.5,372C 274.335,380.187 275.835,388.02 279,395.5C 288.645,406.515 297.645,405.848 306,393.5C 306.667,391.5 307.333,389.5 308,387.5C 310.066,372.583 311.4,357.583 312,342.5C 313.393,327.211 319.893,314.711 331.5,305C 343.176,300.931 350.342,305.097 353,317.5C 353.999,324.46 354.499,331.46 354.5,338.5C 353.666,353.17 353.166,367.837 353,382.5C 353.341,389.876 356.175,396.043 361.5,401C 369.533,405.103 376.366,403.603 382,396.5C 384.584,392.167 386.251,387.5 387,382.5C 388.381,368.173 389.714,353.839 391,339.5C 392.624,326.087 398.124,314.587 407.5,305C 422.291,297.812 431.458,302.312 435,318.5C 436.901,338.376 436.401,358.209 433.5,378C 433.749,384.177 435.249,390.01 438,395.5C 449.289,404.869 458.289,402.869 465,389.5C 469.445,374.989 473.278,360.322 476.5,345.5C 474.65,332.77 472.483,320.103 470,307.5C 468.161,300.801 465.661,294.467 462.5,288.5C 460.928,284.974 459.428,281.307 458,277.5C 456.004,274.014 453.837,270.681 451.5,267.5 Z"/></g>
<g><path style="opacity:0" fill="#d8e6de" d="M 308.5,265.5 C 309.404,266.209 309.737,267.209 309.5,268.5C 312.833,268.5 316.167,268.5 319.5,268.5C 315.532,272.639 311.699,276.973 308,281.5C 308.192,276.201 308.359,270.867 308.5,265.5 Z"/></g>
<g><path style="opacity:0" fill="#eeeeee" d="M 752.5,269.5 C 757.135,273.765 759.968,279.098 761,285.5C 761.486,302.955 760.152,320.288 757,337.5C 755.462,345.748 756.796,353.415 761,360.5C 761.333,360.167 761.667,359.833 762,359.5C 763.039,360.71 764.206,361.71 765.5,362.5C 762.925,365.319 760.592,368.319 758.5,371.5C 752.289,368.112 748.789,362.778 748,355.5C 747.333,348.167 747.333,340.833 748,333.5C 749.828,321.536 751.328,309.536 752.5,297.5C 752.373,293.799 752.04,290.132 751.5,286.5C 752.22,280.862 752.553,275.196 752.5,269.5 Z"/></g>
<g><path style="opacity:1" fill="#efefef" d="M 121.5,309.5 C 119.167,309.5 116.833,309.5 114.5,309.5C 105.676,308.67 96.676,308.17 87.5,308C 84.1581,294.301 87.8248,282.634 98.5,273C 102.67,270.212 107.003,269.879 111.5,272C 122.939,282.464 126.272,294.964 121.5,309.5 Z"/></g>
<g><path style="opacity:1" fill="#e6e8e7" d="M 603.5,278.5 C 605.41,279.975 606.576,281.975 607,284.5C 607.827,288.459 608.327,292.459 608.5,296.5C 607.246,308.862 605.746,321.196 604,333.5C 603.333,340.833 603.333,348.167 604,355.5C 605.125,360.763 607.958,364.763 612.5,367.5C 606.88,377.124 602.047,376.79 598,366.5C 595.701,355.267 595.035,343.934 596,332.5C 598.503,314.477 601.003,296.477 603.5,278.5 Z"/></g>
<g><path style="opacity:1" fill="#e8eae9" d="M 285.5,277.5 C 282.003,315.07 280.503,352.737 281,390.5C 281.465,391.931 282.299,393.097 283.5,394C 295.43,399.197 302.097,395.363 303.5,382.5C 305.511,370.401 306.677,358.067 307,345.5C 308.245,327.178 315.745,312.011 329.5,300C 337.932,295.756 345.432,296.923 352,303.5C 354.994,308.816 356.994,314.482 358,320.5C 358.927,329.145 359.427,337.811 359.5,346.5C 359.023,357.841 358.357,369.174 357.5,380.5C 356.118,387.906 358.785,393.072 365.5,396C 375.712,397.288 380.712,392.788 380.5,382.5C 382.13,380.974 382.963,378.974 383,376.5C 383.545,359.974 385.545,343.64 389,327.5C 392.555,316.202 398.722,306.702 407.5,299C 417.544,293.36 426.378,294.86 434,303.5C 436.973,308.079 438.973,313.079 440,318.5C 441.081,327.135 441.581,335.801 441.5,344.5C 441.326,353.225 440.493,361.891 439,370.5C 438.333,376.5 438.333,382.5 439,388.5C 440.122,390.624 441.622,392.457 443.5,394C 451.38,396.474 456.88,393.974 460,386.5C 461.768,372.181 463.435,357.848 465,343.5C 466.247,325.037 465.414,306.704 462.5,288.5C 465.661,294.467 468.161,300.801 470,307.5C 472.483,320.103 474.65,332.77 476.5,345.5C 473.278,360.322 469.445,374.989 465,389.5C 458.289,402.869 449.289,404.869 438,395.5C 435.249,390.01 433.749,384.177 433.5,378C 436.401,358.209 436.901,338.376 435,318.5C 431.458,302.312 422.291,297.812 407.5,305C 398.124,314.587 392.624,326.087 391,339.5C 389.714,353.839 388.381,368.173 387,382.5C 386.251,387.5 384.584,392.167 382,396.5C 376.366,403.603 369.533,405.103 361.5,401C 356.175,396.043 353.341,389.876 353,382.5C 353.166,367.837 353.666,353.17 354.5,338.5C 354.499,331.46 353.999,324.46 353,317.5C 350.342,305.097 343.176,300.931 331.5,305C 319.893,314.711 313.393,327.211 312,342.5C 311.4,357.583 310.066,372.583 308,387.5C 307.333,389.5 306.667,391.5 306,393.5C 297.645,405.848 288.645,406.515 279,395.5C 275.835,388.02 274.335,380.187 274.5,372C 275.277,347.813 276.443,323.646 278,299.5C 278.445,291.327 280.945,283.994 285.5,277.5 Z"/></g>
<g><path style="opacity:1" fill="#dfe2e1" d="M 573.5,324.5 C 574.96,313.258 571.294,304.091 562.5,297C 553.267,293.1 544.6,294.1 536.5,300C 523.926,311.492 517.926,325.825 518.5,343C 518.628,347.859 518.961,352.693 519.5,357.5C 516.143,350.313 514.81,342.646 515.5,334.5C 514.409,312.878 522.409,295.711 539.5,283C 552.769,277.892 565.102,279.726 576.5,288.5C 577.925,300.815 576.925,312.815 573.5,324.5 Z"/></g>
<g><path style="opacity:1" fill="#dfe2e0" d="M 722.5,323.5 C 723.376,313.285 720.043,304.785 712.5,298C 704.529,293.402 696.529,293.402 688.5,298C 675.213,307.735 668.046,320.901 667,337.5C 666.591,343.51 666.758,349.51 667.5,355.5C 660.928,333.077 664.095,312.077 677,292.5C 692.278,276.214 708.611,275.214 726,289.5C 726.477,301.135 725.311,312.468 722.5,323.5 Z"/></g>
<g><path style="opacity:1" fill="#dfe1e0" d="M 867.5,295.5 C 865.366,297.033 862.866,297.7 860,297.5C 854.804,297.067 849.637,296.401 844.5,295.5C 834.734,295.926 830.401,300.926 831.5,310.5C 820.577,306.234 817.077,298.567 821,287.5C 833.264,277.076 845.764,276.909 858.5,287C 860.74,290.743 863.74,293.576 867.5,295.5 Z"/></g>
<g><path style="opacity:1" fill="#dfe2e1" d="M 441.5,344.5 C 441.581,335.801 441.081,327.135 440,318.5C 438.973,313.079 436.973,308.079 434,303.5C 426.378,294.86 417.544,293.36 407.5,299C 398.722,306.702 392.555,316.202 389,327.5C 385.545,343.64 383.545,359.974 383,376.5C 382.963,378.974 382.13,380.974 380.5,382.5C 381.67,359.442 383.503,336.442 386,313.5C 390.94,300.436 399.106,289.936 410.5,282C 415.44,278.896 420.774,277.896 426.5,279C 436.207,283.212 441.374,290.712 442,301.5C 442.827,316.006 442.661,330.339 441.5,344.5 Z"/></g>
<g><path style="opacity:1" fill="#dee1e0" d="M 359.5,346.5 C 359.427,337.811 358.927,329.145 358,320.5C 356.994,314.482 354.994,308.816 352,303.5C 345.432,296.923 337.932,295.756 329.5,300C 315.745,312.011 308.245,327.178 307,345.5C 306.677,358.067 305.511,370.401 303.5,382.5C 304.048,360.491 304.881,338.491 306,316.5C 312.108,303.084 320.942,291.918 332.5,283C 344.078,275.211 352.578,277.711 358,290.5C 362.158,309.19 362.658,327.857 359.5,346.5 Z"/></g>
<g><path style="opacity:1" fill="#dfe4e1" d="M 751.5,286.5 C 752.04,290.132 752.373,293.799 752.5,297.5C 751.328,309.536 749.828,321.536 748,333.5C 747.333,340.833 747.333,348.167 748,355.5C 748.789,362.778 752.289,368.112 758.5,371.5C 755.374,375.401 752.208,375.401 749,371.5C 747.046,367.019 745.713,362.352 745,357.5C 744.568,333.476 746.735,309.809 751.5,286.5 Z"/></g>
<g><path style="opacity:1" fill="#ececec" d="M 804.5,272.5 C 796.533,281.411 793.867,291.744 796.5,303.5C 796.496,311.989 798.996,319.656 804,326.5C 812.35,335.524 821.85,343.024 832.5,349C 841.727,355.582 844.393,364.082 840.5,374.5C 826.606,375.211 814.606,370.878 804.5,361.5C 810.185,362.671 815.851,364.004 821.5,365.5C 823.857,365.308 825.524,364.142 826.5,362C 825.324,359.314 823.657,356.981 821.5,355C 809.667,347.167 799.833,337.333 792,325.5C 784.647,308.817 786.313,293.15 797,278.5C 799.106,275.882 801.606,273.882 804.5,272.5 Z"/></g>
<g><path style="opacity:1" fill="#e8eae9" d="M 722.5,323.5 C 720.879,339.395 715.379,353.728 706,366.5C 698.799,372.113 690.633,373.947 681.5,372C 673.737,369.074 669.07,363.574 667.5,355.5C 666.758,349.51 666.591,343.51 667,337.5C 668.046,320.901 675.213,307.735 688.5,298C 696.529,293.402 704.529,293.402 712.5,298C 720.043,304.785 723.376,313.285 722.5,323.5 Z"/></g>
<g><path style="opacity:1" fill="#eeeeee" d="M 573.5,324.5 C 571.981,337.225 568.148,349.225 562,360.5C 554.268,371.966 543.768,375.466 530.5,371C 525.143,367.816 521.476,363.316 519.5,357.5C 518.961,352.693 518.628,347.859 518.5,343C 517.926,325.825 523.926,311.492 536.5,300C 544.6,294.1 553.267,293.1 562.5,297C 571.294,304.091 574.96,313.258 573.5,324.5 Z"/></g>
<g><path style="opacity:0" fill="#f0f0f0" d="M 698.5,299.5 C 708.269,299.463 714.436,304.129 717,313.5C 718.142,331.931 713.809,348.931 704,364.5C 694.958,373.825 685.958,373.825 677,364.5C 668.319,344.727 670.319,326.06 683,308.5C 687.569,304.305 692.735,301.305 698.5,299.5 Z"/></g>
<g><path style="opacity:0" fill="#f8f8f8" d="M 695.5,305.5 C 703.54,303.935 709.04,306.935 712,314.5C 713.279,329.719 710.279,344.052 703,357.5C 697.759,365.922 690.926,367.588 682.5,362.5C 680.501,360.507 679.001,358.173 678,355.5C 673.999,338.488 677.499,323.321 688.5,310C 690.898,308.476 693.231,306.976 695.5,305.5 Z"/></g>
<g><path style="opacity:0" fill="#e0e2e1" d="M 796.5,303.5 C 798.088,308.01 800.255,312.343 803,316.5C 813.415,326.963 825.582,334.797 839.5,340C 845.104,343.603 849.271,348.437 852,354.5C 854.576,365.028 850.743,371.695 840.5,374.5C 844.393,364.082 841.727,355.582 832.5,349C 821.85,343.024 812.35,335.524 804,326.5C 798.996,319.656 796.496,311.989 796.5,303.5 Z"/></g>
<g><path style="opacity:0" fill="#eaebea" d="M 665.5,273.5 C 647.068,293.456 638.734,317.123 640.5,344.5C 640.018,351.731 639.352,358.897 638.5,366C 639.167,367.333 639.833,368.667 640.5,370C 639.167,372 639.167,374 640.5,376C 650.004,387.68 662.337,396.347 677.5,402C 680.658,402.554 683.825,403.054 687,403.5C 698,401.167 709,398.833 720,396.5C 730.915,398.861 741.748,401.528 752.5,404.5C 758.637,404.005 764.137,402.005 769,398.5C 769.333,398.833 769.667,399.167 770,399.5C 780.154,389.056 791.321,388.223 803.5,397C 813.704,401.568 824.371,404.401 835.5,405.5C 852.745,404.643 865.245,396.643 873,381.5C 874.631,377.312 875.464,372.979 875.5,368.5C 875.5,362.833 875.5,357.167 875.5,351.5C 876.558,352.6 877.392,353.934 878,355.5C 881.407,366.072 880.74,376.405 876,386.5C 866.708,401.656 853.041,409.656 835,410.5C 819.477,408.37 804.977,404.037 791.5,397.5C 789.5,397.5 787.5,397.5 785.5,397.5C 777.19,401.699 768.857,405.199 760.5,408C 755.167,408.667 749.833,408.667 744.5,408C 736.737,404.912 728.737,402.745 720.5,401.5C 709.399,404.145 698.232,406.478 687,408.5C 671.183,406.339 657.349,400.006 645.5,389.5C 643.629,388.233 641.796,388.233 640,389.5C 639.667,388.833 639.333,388.167 639,387.5C 633.522,391.907 628.355,396.74 623.5,402C 615.491,408.079 606.491,410.079 596.5,408C 588.488,405.218 580.321,403.051 572,401.5C 561.079,404.147 550.079,406.48 539,408.5C 526.171,407.998 515.004,403.498 505.5,395C 492.84,380.845 485.173,364.345 482.5,345.5C 483.896,331.011 488.563,317.677 496.5,305.5C 494.007,313.299 492.674,321.299 492.5,329.5C 487.317,350.702 491.484,370.035 505,387.5C 514.01,397.254 525.177,402.588 538.5,403.5C 549.397,401.4 560.23,399.067 571,396.5C 581.904,398.856 592.737,401.523 603.5,404.5C 615.763,403.558 623.43,397.225 626.5,385.5C 627.657,383.862 628.824,382.196 630,380.5C 634.43,372.613 632.93,366.279 625.5,361.5C 626.653,359.193 627.82,356.86 629,354.5C 628.535,322.623 639.702,295.789 662.5,274C 663.448,273.517 664.448,273.351 665.5,273.5 Z"/></g>
<g><path style="opacity:0" fill="#f8f8f8" d="M 547.5,305.5 C 558.793,304.7 564.46,310.033 564.5,321.5C 563.445,335.066 559.611,347.733 553,359.5C 546.299,367.061 539.299,367.395 532,360.5C 525.469,345.133 526.469,330.133 535,315.5C 538.512,311.134 542.679,307.801 547.5,305.5 Z"/></g>
<g><path style="opacity:1" fill="#dfe2e0" d="M 492.5,329.5 C 492.334,335.842 492.5,342.175 493,348.5C 494.938,366.905 503.771,380.738 519.5,390C 543.707,399.041 562.873,392.874 577,371.5C 579.007,379.686 583.173,386.519 589.5,392C 603.424,398.379 615.757,396.213 626.5,385.5C 623.43,397.225 615.763,403.558 603.5,404.5C 592.737,401.523 581.904,398.856 571,396.5C 560.23,399.067 549.397,401.4 538.5,403.5C 525.177,402.588 514.01,397.254 505,387.5C 491.484,370.035 487.317,350.702 492.5,329.5 Z"/></g>
<g><path style="opacity:0" fill="#dfe1e0" d="M 175.5,398.5 C 171.305,398.319 167.805,396.653 165,393.5C 158.822,382.477 153.155,371.143 148,359.5C 142.312,351.157 134.479,345.99 124.5,344C 110.466,343.158 96.4664,343.491 82.5,345C 70.7895,346.933 61.6229,352.766 55,362.5C 50.7106,372.044 46.0439,381.377 41,390.5C 38.2555,394.767 34.4221,397.101 29.5,397.5C 32.7332,396.105 35.2332,393.772 37,390.5C 43.8772,371.581 51.7106,353.081 60.5,335C 64.147,334.226 67.8136,333.559 71.5,333C 95.8274,331.454 120.161,331.288 144.5,332.5C 152.039,352.618 159.873,372.618 168,392.5C 169.707,395.59 172.207,397.59 175.5,398.5 Z"/></g>
<g><path style="opacity:0" fill="#e0e2e1" d="M 640.5,344.5 C 642.094,362.521 650.094,377.021 664.5,388C 689.736,399.581 710.236,394.081 726,371.5C 727.462,378.591 730.628,384.758 735.5,390C 747.712,397.608 759.712,397.275 771.5,389C 777.899,384.038 780.899,377.538 780.5,369.5C 781.222,369.082 781.722,368.416 782,367.5C 782.383,368.056 782.883,368.389 783.5,368.5C 783.892,370.179 784.392,371.846 785,373.5C 799.125,386.561 815.791,393.895 835,395.5C 855.117,396.048 868.617,387.048 875.5,368.5C 875.464,372.979 874.631,377.312 873,381.5C 865.245,396.643 852.745,404.643 835.5,405.5C 824.371,404.401 813.704,401.568 803.5,397C 791.321,388.223 780.154,389.056 770,399.5C 769.667,399.167 769.333,398.833 769,398.5C 764.137,402.005 758.637,404.005 752.5,404.5C 741.748,401.528 730.915,398.861 720,396.5C 709,398.833 698,401.167 687,403.5C 683.825,403.054 680.658,402.554 677.5,402C 662.337,396.347 650.004,387.68 640.5,376C 639.167,374 639.167,372 640.5,370C 639.833,368.667 639.167,367.333 638.5,366C 639.352,358.897 640.018,351.731 640.5,344.5 Z"/></g>
</svg>
